<svg xmlns="http://www.w3.org/2000/svg" width="521.001" height="66.001" viewBox="0 0 521.001 66.001">
  <g id="グループ_13" data-name="グループ 13" transform="translate(-781 -639)">
    <path id="中マド_10" data-name="中マド 10" d="M487,56,24,56l8.5-17H8l3.878-8H36.5l-4,8H72.122L76,31H36.5L42,20H0l3.878-8H46l-4,8H64.122L68,12H46L52,0H515L487,56h0Z" transform="translate(787 649)" fill="#eee"/>
    <path id="合体_14" data-name="合体 14" d="M487,56H24l8.5-17H8l3.878-8H36.5L42,20H0l3.878-8H46L52,0H515L487,56h0Z" transform="translate(781 639)" fill="#eee"/>
    <path id="中マド_11" data-name="中マド 11" d="M487,56,24,56l8.5-17H8l3.878-8H36.5l-4,8H72.122L76,31H36.5L42,20H0l3.878-8H46l-4,8H64.122L68,12H46L52,0H515L487,56h0Z" transform="translate(781 639)" fill="#5c6bc0"/>
    <text id="競馬予想をAIがサポート" transform="translate(922 677)" fill="#fff" font-size="26" font-family="ShinGoPr6N-Regular, A-OTF Shin Go Pr6N"><tspan x="0" y="0">競馬予想をAIがサポート</tspan></text>
  </g>
</svg>
