<svg xmlns="http://www.w3.org/2000/svg" viewBox="0 0 147.5 56.25"><defs><style>.cls-1{fill:#adadad;opacity:0.59;}.cls-2{fill:none;stroke:#686868;stroke-miterlimit:10;stroke-width:3px;}.cls-3{fill:#e83618;}.cls-4{fill:#427e42;}.cls-5{fill:#fff;}</style></defs><title>アセット 3</title><g id="レイヤー_2" data-name="レイヤー 2"><g id="レイヤー_1-2" data-name="レイヤー 1"><path class="cls-1" d="M21.2.28c1.72-.1,5.53-1,7.28,1.24.9,1.64,1.27,1,1.65,1.82.81,2.12,1.07,1.54,2.32,2.51C34.68,7.7,35,9.48,34.13,10.52c-.67.84-2.56.79-2.35-.1s-3-1.57-4.42-1.27a9.38,9.38,0,0,0,4.78,6.65c1.67.68,1.1,3.18,1.1,4.38,6.07-.25,5.94,0,6.81,1.21,1.19,3.07,1.29,5.25.63,6.05-1.07,1-1.17,2.31-2.13,2.75-1.13.24-1.74-1.07-1.22-2.2a1.18,1.18,0,0,1,1.26-.76c.32-1.52.77-3.15,0-4.4s-3,0-4.9,1c-1.54.57-2.44.48-4,2.22-1.76,1.25-5.52,4-7.67,5.18-3.21,1.9-3.68,3.27-3.83,5.87C18,39,14.84,43.79,13.56,44.5,11,47,10.19,47.44,12.28,52.68c0,0,1,3,1.09,3.55-4.08.22-3.46-1-4-3.72-1.14-6.4.05-6,1.73-8.83,1.61-2.53.05-3-1.46-3.91-2.47-2.08-2.2-5.65-3.46-6.1-2.76,3.8-.43,5.93,1.15,6.8,0,0,1,.72,1.12,1.2a6.18,6.18,0,0,1-4-2.41C4.48,40.78,7.84,43.72,9,44A13.45,13.45,0,0,1,3.59,40.5c1.35,2.07,4.64,3,4.88,6.7C8,46.69,7.62,45.9,7,45.61c0,1.44,0,2.48,0,2.91l-.62-.44c0,1.07,0,2,0,2.71A20.18,20.18,0,0,0,3.29,44.6C1.93,42.94-.18,39.69,0,36.89s5.61-4.19,7.24-7c1.87-3.92,2.42-2.73,6.5-5.41,4.22-2.92,4.2-4.52,5-6.72.7-1.74,1.59-1.62,1-5.06a2.11,2.11,0,0,0-.75.13c0-.67.09-1,.07-1.19a2.39,2.39,0,0,0-1.47,1.17c.08-1.48,2.29-2.38,2.39-3.85-.3-.1-.47.11-.74.23-.05-.56.44-1.25.32-1.8-.17-.07-.76.22-1,.53A2.59,2.59,0,0,1,19,6.66a1.75,1.75,0,0,0-.95.81c-.27-1.36,2.8-3,2.75-3.93a4.24,4.24,0,0,0-2,.92c.35-1,1.8-2.51,4.89-2.78C22.38.94,21.79,1.22,21.2.28Z"/><circle class="cls-2" cx="130.43" cy="36.77" r="15.57"/><circle class="cls-2" cx="130.43" cy="36.77" r="8.64"/><circle class="cls-3" cx="130.43" cy="36.77" r="5.19"/><path class="cls-4" d="M34,43.2c-1.17,0-2.7-1.36-3.35-3l0-.05L30.51,39l0-.25a7.8,7.8,0,0,0-.16-.81L27.22,26.79a26.15,26.15,0,0,0-2.88,1.49c-1.44.89-1.73,1.06-2.51,1.06-1.24,0-2.41-.66-3.8-2.12l-.1-.11-.05-1.55.34,0a16.23,16.23,0,0,0,3-.57l5.11-1.75-.64-2.29A3.29,3.29,0,0,0,25,19.36a4.71,4.71,0,0,0-.6-.5c-.38-.32-.79-.62-1.19-.93l-.47-.37.8-1.2.1-.05a3.56,3.56,0,0,1,1.68-.41,6.32,6.32,0,0,1,4,1.5,2.62,2.62,0,0,1,.51,1.5c0,.07,0,.16.07.61a5.41,5.41,0,0,0,.1.81L30.31,22a34.43,34.43,0,0,1,8.08-1.23,6.07,6.07,0,0,1,4,1.07C43.43,22.52,44,23.27,44,24c0,.88-.26,1.21-1.3,2.14a18.09,18.09,0,0,1-9,4.76l-.1,0-1-.31,1.6,5.7c.1.29.19.57.27.82s.17.53.23.66a11.48,11.48,0,0,1,.89,3.77A1.53,1.53,0,0,1,34,43.2ZM32.39,29.59a21.67,21.67,0,0,0,5.68-5.33h-.23a25.23,25.23,0,0,0-6.6,1.27Z"/><path class="cls-5" d="M25.29,16.27A6,6,0,0,1,29,17.66a2.34,2.34,0,0,1,.41,1.27s0,0,.07.63a5.44,5.44,0,0,0,.1.83L30,22.46a35,35,0,0,1,8.37-1.31,5.8,5.8,0,0,1,3.77,1c1,.62,1.49,1.28,1.49,1.8,0,.69-.14.93-1.18,1.87a17.88,17.88,0,0,1-8.82,4.66l-1.31-.41a21.81,21.81,0,0,0,6.43-6.16c-.41,0-.73,0-.93,0a26.55,26.55,0,0,0-7.06,1.38l3.12,11.1c.24.69.41,1.28.51,1.52a11,11,0,0,1,.87,3.63A1.17,1.17,0,0,1,34,42.83c-1,0-2.42-1.28-3-2.73l-.14-1.18c-.07-.41-.07-.52-.21-1.11L27.46,26.27A28.46,28.46,0,0,0,24.14,28c-1.45.9-1.65,1-2.31,1-1.14,0-2.25-.65-3.53-2l0-1.07a17.26,17.26,0,0,0,3-.59l2.52-.87,2.94-1-.72-2.63a3.74,3.74,0,0,0-.8-1.69,6.6,6.6,0,0,0-.66-.56c-.38-.31-.79-.62-1.21-.93l-.17-.14.55-.83a3.22,3.22,0,0,1,1.53-.38m0-.75a3.84,3.84,0,0,0-1.83.45l-.2.09-.12.18-.55.83-.38.57.53.43.17.14c.44.32.84.62,1.21.93a4.57,4.57,0,0,1,.6.5c.21.23.31.43.61,1.38L25.86,23l-2.27.77-2.52.87a15.62,15.62,0,0,1-2.9.55l-.68.09,0,.68,0,1.07v.29l.2.2c1.45,1.53,2.74,2.24,4.07,2.24.88,0,1.22-.19,2.71-1.11A20.51,20.51,0,0,1,27,27.32L30,38a6.85,6.85,0,0,1,.14.76l0,.27.13,1.14v.1l0,.1c.62,1.54,2.22,3.2,3.7,3.2a1.9,1.9,0,0,0,2-2.07,11.47,11.47,0,0,0-.9-3.86v0l0,0c-.05-.13-.12-.35-.21-.63s-.18-.54-.29-.85l-1.39-5,.22.07.19.06.19,0A18.52,18.52,0,0,0,43,26.37C44,25.42,44.4,25,44.4,24c0-.82-.64-1.66-1.84-2.43a6.48,6.48,0,0,0-4.17-1.12,33.22,33.22,0,0,0-7.8,1.15l-.28-1.32a4.58,4.58,0,0,1-.09-.67v-.09c0-.41-.06-.52-.06-.56a3,3,0,0,0-.6-1.74,6.72,6.72,0,0,0-4.26-1.65ZM31.7,25.77a26.65,26.65,0,0,1,5.6-1.12A21.24,21.24,0,0,1,32.61,29l-.91-3.22Z"/><path class="cls-4" d="M50.81,41.38l.56-.3C57.21,37.9,60,35.4,62.49,31.16a31.3,31.3,0,0,0,3.23-7.94,15.22,15.22,0,0,0-1.59-.11A27.19,27.19,0,0,0,53.94,25.3a2.57,2.57,0,0,1-1.11.27,3.69,3.69,0,0,1-2.36-.82,7.9,7.9,0,0,1-1.63-2.31l-.06-.1.15-1.65.73.16a5.78,5.78,0,0,0,1.71.23h.31l.43-.07A2,2,0,0,0,52.4,21l.34-.07c.22-.05.53-.13.94-.21a51.21,51.21,0,0,1,10.14-1.36c2.22,0,3.56.29,4.6,1a3.86,3.86,0,0,1,2,3,27.3,27.3,0,0,1-2.32,6.73,22,22,0,0,1-6.4,8.2,20.67,20.67,0,0,1-9.1,4.11l-.16,0Zm19-21.45c-1,0-1.32-.21-2-1.27s-.88-1.19-2.91-2.6l-.57-.4L65.86,15h.07a7.46,7.46,0,0,1,2.2.24,4,4,0,0,1,3.26-1.14c1.83,0,4.29,1.39,4.29,2.8a1.41,1.41,0,0,1-1.52,1.34,3.34,3.34,0,0,1-1.77-.53l-.07,0,0-.06c-.85-1.09-1.64-1.68-2.3-1.72,0,.38.11.56.83,1.34a2.67,2.67,0,0,1,.69,1.43C71.49,19.43,70.81,19.93,69.8,19.93Z"/><path class="cls-5" d="M71.39,14.51c1.77,0,3.91,1.31,3.91,2.42a1,1,0,0,1-1.14,1,3,3,0,0,1-1.59-.49c-1-1.24-1.87-1.86-2.66-1.86-.25,0-.32.07-.32.27,0,.59.11.8.94,1.7a2.22,2.22,0,0,1,.59,1.17c0,.52-.52.87-1.32.87s-1.07-.14-1.73-1.11-1-1.28-3-2.7l.86-.34a7.42,7.42,0,0,1,2.32.27,3.67,3.67,0,0,1,3.14-1.17M63.82,19.7c2.18,0,3.42.27,4.39.93A3.48,3.48,0,0,1,70,23.36a27.94,27.94,0,0,1-2.28,6.57A21.4,21.4,0,0,1,61.47,38a20.27,20.27,0,0,1-9,4l-1-.62c5.91-3.22,8.74-5.74,11.27-10.06,1.48-2.56,3.28-7.06,3.28-8.27a.33.33,0,0,0,0-.13,7.42,7.42,0,0,0-1.94-.21A27.73,27.73,0,0,0,53.79,25a2.22,2.22,0,0,1-1,.24,3.3,3.3,0,0,1-2.11-.72,7.87,7.87,0,0,1-1.56-2.22l.1-1.1.32.07a6.68,6.68,0,0,0,1.79.24h.31c.39-.07.73-.1.83-.14s.59-.14,1.25-.28A50.83,50.83,0,0,1,63.82,19.7m7.57-5.94A4.42,4.42,0,0,0,68,14.86a7.51,7.51,0,0,0-2.09-.2h-.14l-.14.05-.86.35-1.3.52,1.15.79c2,1.41,2.1,1.52,2.82,2.52a6.78,6.78,0,0,0,.63.8A9.19,9.19,0,0,0,63.82,19a51.46,51.46,0,0,0-10.24,1.37l-.93.2-.28.07h0l0,0-.22,0-.44.07h-.25a5.54,5.54,0,0,1-1.63-.23l-.31-.06-.83-.19-.08.85-.11,1.1,0,.24.12.21A8.65,8.65,0,0,0,50.23,25a4.08,4.08,0,0,0,2.6.9,2.88,2.88,0,0,0,1.27-.31,26.86,26.86,0,0,1,10-2.14,11.11,11.11,0,0,1,1.16.07A35,35,0,0,1,62.17,31c-2.44,4.17-5.21,6.64-11,9.78l-1.11.61,1.06.68,1,.62.26.17.31-.07a21.18,21.18,0,0,0,9.25-4.18,22.23,22.23,0,0,0,6.51-8.33c1.09-2.31,2.35-5.82,2.35-6.89a3.93,3.93,0,0,0-1.9-3.16,3.43,3.43,0,0,0,.91.11c1.42,0,2.07-.84,2.07-1.62A2.9,2.9,0,0,0,71.1,17l-.38-.42A5.75,5.75,0,0,1,72,17.87l.09.13.13.07a3.77,3.77,0,0,0,2,.58,1.77,1.77,0,0,0,1.89-1.72c0-1.68-2.6-3.17-4.66-3.17Z"/><path class="cls-4" d="M83.94,43.08l.47-.4c.63-.52,1.12-.91,1.43-1.15C90.26,38,92.16,34,92.55,27.18h0l-.83,0a29.89,29.89,0,0,0-3.52.36l.09,4.65v.21c0,1.34-.29,2.7-1.58,2.7a2,2,0,0,1-1.67-1A5.15,5.15,0,0,1,84,31.66c0-.07,0-.07.1-1.69a9.89,9.89,0,0,0,.07-1.35v-.35c-.83.27-1.33.42-1.73.54l-.41.13a5.23,5.23,0,0,1-2,.47,5.1,5.1,0,0,1-4.09-2.29L75.86,27l-.21-1.86.5.09a10.27,10.27,0,0,0,2.18.31,4.18,4.18,0,0,0,.79-.06l5-.88v-.45L84,21.8a3.86,3.86,0,0,0-1.87-3.3l-.32-.25,1-1,.14,0c.4,0,.58,0,.83,0a4.26,4.26,0,0,1,4.11,3.74L88,24.15c1-.13,2.62-.27,4.7-.44l0-1.43-.14-2.88-.06-.25c-.09-.37-.36-.71-1.45-1.34l-.28-.17.47-1.13,0-.05a1.89,1.89,0,0,1,1.61-.67,5.33,5.33,0,0,1,3.32,1.37,3.06,3.06,0,0,1,1.1,2.43c0,.18,0,.5,0,1.1l-.21,2.78L99,23.3a9.58,9.58,0,0,1,1.42-.18c1.8,0,4,1.79,4,3.25,0,1-.62,1.52-1.69,1.52a10.14,10.14,0,0,1-2.4-.43c-.63-.09-1.22-.16-3.52-.31-.52,5.07-1.12,7.28-2.71,10.06a15.14,15.14,0,0,1-8.35,6.53l-.13,0Z"/><path class="cls-5" d="M92.88,16.17A5,5,0,0,1,96,17.45a2.66,2.66,0,0,1,1,2.14c0,.17,0,.49,0,1.07l-.24,3.22L99,23.67a10.2,10.2,0,0,1,1.38-.17c1.59,0,3.63,1.62,3.63,2.87,0,.76-.45,1.14-1.31,1.14a10.14,10.14,0,0,1-2.32-.42c-.69-.1-1.31-.17-3.94-.34-.52,5.32-1.11,7.5-2.7,10.27a14.69,14.69,0,0,1-8.12,6.36l-1-.41,1.42-1.15c4.6-3.63,6.54-7.88,6.88-15-.59,0-1,.07-1.28.07a30.64,30.64,0,0,0-3.91.42l.11,5v.2c-.07,1.63-.42,2.32-1.21,2.32a1.64,1.64,0,0,1-1.35-.86,4.91,4.91,0,0,1-.9-2.25c0-.07,0-.07.1-1.66a10.38,10.38,0,0,0,.07-1.38v-.87c-1.48.49-2.07.66-2.62.83A4.82,4.82,0,0,1,80,29a4.74,4.74,0,0,1-3.8-2.14l-.14-1.25a10.32,10.32,0,0,0,2.25.31,5.11,5.11,0,0,0,.86-.06l3.15-.56L84.51,25v-.76l-.17-2.42a4.2,4.2,0,0,0-2-3.56l.58-.62a6.38,6.38,0,0,1,.8,0A3.84,3.84,0,0,1,87.45,21l.14,3.6c1-.14,2.84-.31,5.43-.52l0-1.76-.14-2.91-.07-.31c-.14-.55-.56-1-1.63-1.59l.31-.76a1.56,1.56,0,0,1,1.35-.55m0-.75a2.3,2.3,0,0,0-1.88.77l-.1.11-.06.14-.31.76-.25.6.57.33c1,.56,1.2.85,1.27,1.13l0,.22.14,2.82,0,1.06c-1.67.14-3,.26-4,.37L88.2,21v-.08a4.64,4.64,0,0,0-4.48-4.07,7.45,7.45,0,0,0-.86,0l-.29,0-.19.2-.59.62-.56.6.64.51a3.48,3.48,0,0,1,1.72,3l.17,2.42v.1l-1.55.27-3.15.56a4.28,4.28,0,0,1-.73.05,9.82,9.82,0,0,1-2.11-.29l-1-.2.11,1L75.47,27l0,.22.13.17a5.16,5.16,0,0,0,6.59,1.92l.37-.11,1.24-.39a8.42,8.42,0,0,1-.06,1.14c-.11,1.65-.11,1.65-.11,1.74a5.41,5.41,0,0,0,1,2.66,2.34,2.34,0,0,0,2,1.2c1.83,0,1.92-2.2,2-3v-.24l-.09-4.34a28.22,28.22,0,0,1,3.1-.3h.11a3.51,3.51,0,0,0,.41,0C91.71,34,89.84,37.9,85.61,41.24c-.32.24-.81.62-1.44,1.15l-1,.79,1.15.48,1,.41.24.1.25-.07a15.31,15.31,0,0,0,8.56-6.69c1.6-2.78,2.22-5,2.73-9.86,2,.13,2.55.2,3.16.29a10.42,10.42,0,0,0,2.43.42,1.84,1.84,0,0,0,2.06-1.89c0-1.66-2.37-3.62-4.38-3.62a10.39,10.39,0,0,0-1.48.18l-1.47.13.17-2.34c0-.62,0-.95,0-1.13a3.4,3.4,0,0,0-1.22-2.7,5.68,5.68,0,0,0-3.58-1.47Z"/><polygon class="cls-4" points="110.8 26.91 114.92 26.14 117.2 27.78 113.09 28.52 110.8 26.91"/><path class="cls-5" d="M114.83,26.54l1.43,1-3.08.56-1.44-1,3.09-.57m.18-.8-.32.06-3.09.58-1.75.32,1.46,1,1.44,1,.25.18.31-.06,3.09-.55,1.74-.32-1.44-1-1.43-1-.26-.19Z"/><polygon class="cls-4" points="108.79 25.49 112.91 24.72 115.19 26.36 111.08 27.11 108.79 25.49"/><path class="cls-5" d="M112.82,25.12l1.43,1-3.08.56-1.44-1,3.09-.58m.18-.8-.32.06-3.09.58-1.75.33,1.46,1,1.44,1,.25.18.31-.05,3.09-.56,1.74-.31-1.44-1-1.43-1-.26-.19Z"/><polygon class="cls-4" points="106.8 24.11 110.92 23.34 113.2 24.98 109.09 25.72 106.8 24.11"/><path class="cls-5" d="M110.83,23.74l1.44,1-3.09.56-1.44-1,3.09-.57m.18-.8-.32.06-3.08.58-1.75.32,1.45,1,1.44,1,.26.18.3-.06,3.09-.55,1.74-.32-1.43-1-1.44-1-.26-.19Z"/><polygon class="cls-4" points="111.74 22.24 111.08 18.14 113.36 19.73 114.02 23.86 111.74 22.24"/><path class="cls-5" d="M111.59,19,113,20l.49,3.09-1.43-1L111.59,19m-1-1.63.29,1.75.49,3.07,0,.31.26.18,1.42,1,1.46,1-.28-1.77-.49-3.09-.05-.31-.26-.18-1.43-1-1.46-1Z"/><polygon class="cls-4" points="113.68 23.61 113.02 19.52 115.31 21.11 115.96 25.24 113.68 23.61"/><path class="cls-5" d="M113.53,20.33l1.43,1,.49,3.08-1.42-1-.5-3.07m-1-1.63.28,1.75.5,3.07,0,.31.25.18L115,25l1.45,1-.28-1.76-.49-3.09,0-.31-.26-.19-1.43-1-1.45-1Z"/><polygon class="cls-4" points="115.71 25.09 115.05 20.99 117.34 22.59 117.99 26.71 115.71 25.09"/><path class="cls-5" d="M115.56,21.8l1.43,1,.49,3.09-1.42-1-.5-3.07m-1-1.62.29,1.74.5,3.07.05.31.25.18,1.42,1,1.46,1-.28-1.77-.49-3.08,0-.32-.26-.18-1.43-1-1.46-1Z"/><path class="cls-4" d="M106,42.61l.49-.31c5-3.11,8.37-6.67,12.33-13.07l-8.19-5.79,1.07-1.58,8.08,5.76.9-1.54c1.9-3.31,1.9-3.31,2.31-4.1a12,12,0,0,0,.86-2.29A15,15,0,0,0,122.19,17l-.28-.44,1.29-.79h.07a4.91,4.91,0,0,1,.68,0c2.36,0,5,2.26,5,4.25,0,.87-.29,1.42-1.44,3.21,0,0-.13.23-.29.49s-.41.69-.63,1.08c-.57,1-.88,1.44-1.33,2.15l-.93,1.46-1.1,1.8,4.83,3.44.25-2.88,3.44,6.4-7.58-.68,2.86-1.32-4.79-3.39c-4.48,6.85-9.6,10.91-14.83,11.77l-.15,0Z"/><path class="cls-5" d="M124,16.07c2.14,0,4.67,2.1,4.67,3.87,0,.72-.21,1.17-1.39,3-.07.13-.51.86-.93,1.59-.86,1.45-1.14,1.83-2.25,3.59l-1.28,2.1,5.65,4,.19-2.28,2.52,4.68-5.49-.5,2.17-1-5.63-4c-4.46,6.92-9.61,11.08-14.79,11.93l-.73-.48c5.17-3.22,8.57-6.88,12.63-13.49l-8.17-5.79.65-.95,8.1,5.77L121,26.27c1.9-3.32,1.9-3.32,2.31-4.12a10.74,10.74,0,0,0,.9-2.45c0-.28-.07-.38-1.76-3.05l.9-.55a5.38,5.38,0,0,1,.62,0m0-.75a5.72,5.72,0,0,0-.73,0l-.15,0-.14.08L122,16l-.64.4.41.65.07.11c1,1.52,1.47,2.31,1.57,2.54a14.88,14.88,0,0,1-.82,2.12c-.4.76-.4.76-2.3,4.06l-.69,1.18-7.43-5.29-.62-.45-.44.64-.65,1-.41.61.6.43,7.6,5.38c-3.84,6.15-7.15,9.61-12,12.64l-1,.62,1,.64.73.49.25.16.29,0c5.25-.86,10.38-4.87,14.87-11.61L126.32,35l-1,.46-2.54,1.18,2.79.25,5.49.49,1.39.13-.66-1.23-2.52-4.68-1.19-2.22-.21,2.51-.09,1-4-2.86.92-1.5c.39-.61.68-1.06.92-1.45.45-.7.77-1.2,1.33-2.15.23-.4.47-.79.64-1.09l.3-.5c1.19-1.85,1.49-2.45,1.49-3.39,0-2.21-2.84-4.62-5.42-4.62Z"/></g></g></svg>